<svg width="168" height="44" viewBox="0 0 168 44" fill="none" xmlns="http://www.w3.org/2000/svg">
<path d="M163.886 43.3026C166.158 43.3026 168 41.5168 168 39.3139C168 37.1109 166.158 35.3251 163.886 35.3251C161.614 35.3251 159.773 37.1109 159.773 39.3139C159.773 41.5168 161.614 43.3026 163.886 43.3026Z" fill="#EF3131"/>
<path d="M40.9082 19.1808C38.759 18.1698 36.1712 19.0391 35.1288 21.1233L33.5895 24.1994L27.0461 37.277C26.2569 38.8528 26.5785 40.6707 27.7105 41.9007C28.0769 42.2975 28.525 42.6358 29.0493 42.8814C31.1985 43.8923 33.7862 43.0232 34.8287 40.939L42.9114 24.7852C43.9538 22.701 43.0576 20.1917 40.9082 19.1808Z" fill="#EF3131"/>
<path d="M58.7416 38.0762H46.3118L43.8604 43.6561H39.1021L50.2888 19.5492H54.8347L66.0585 43.6561H61.228L58.7416 38.0762ZM57.214 34.5636L52.5257 24.0256L47.8726 34.5636H57.214Z" fill="#F2F2F2"/>
<path d="M80.1233 38.834C78.6541 39.6597 76.951 40.0736 75.0082 40.0736C73.28 40.0736 71.7347 39.707 70.3726 38.9719C69.0105 38.2369 67.9447 37.228 67.177 35.9411C66.4073 34.6562 66.0235 33.2088 66.0235 31.6008C66.0235 29.9475 66.4073 28.4793 67.177 27.1926C67.9467 25.9075 69.0105 24.9081 70.3726 24.1957C71.7347 23.4852 73.2897 23.1281 75.0434 23.1281C77.7188 23.1281 80.0025 24.0464 81.8984 25.883L84.8116 23.1281C83.6522 21.8432 82.22 20.8663 80.515 20.2011C78.81 19.536 76.916 19.2017 74.833 19.2017C72.2764 19.2017 69.9732 19.7363 67.9253 20.8039C65.8773 21.8716 64.2736 23.3473 63.1123 25.2293C61.9529 27.1132 61.3722 29.2371 61.3722 31.6008C61.3722 31.6556 61.3761 31.7067 61.378 31.7595L65.6162 40.8653C66.3059 41.4435 67.0679 41.9574 67.9077 42.3978C69.944 43.4652 72.2277 44 74.7627 44C76.5614 44 78.315 43.7355 80.0201 43.2083C81.725 42.6811 83.2157 41.9234 84.4939 40.9352V31.3269H80.1252V38.834H80.1233Z" fill="#F2F2F2"/>
<path d="M103.516 39.9017V43.6562H85.3669V19.5474H103.516V23.302H89.985V29.5696H103.516V33.2543H89.985V39.9017H103.516Z" fill="#F2F2F2"/>
<path d="M126.316 24.5869L126.575 43.6543H122.776L109.065 27.3305V33.2429H104.484V19.5474H108.284L121.994 35.8713L121.735 29.2106L126.316 24.5869Z" fill="#F2F2F2"/>
<path d="M138.253 40.0735C136.548 40.0735 135.02 39.7126 133.672 38.9889C132.322 38.2652 131.269 37.2618 130.511 35.9751C129.753 34.6901 129.375 33.2315 129.375 31.6007C129.375 29.9701 129.753 28.5133 130.511 27.2264C131.269 25.9416 132.324 24.9364 133.672 24.2126C135.023 23.4889 136.548 23.128 138.253 23.128C139.95 23.128 141.475 23.523 142.824 24.309L140.101 19.9385C139.983 19.7514 139.962 19.5266 140.028 19.3225C139.385 19.2451 138.723 19.2034 138.04 19.2034C135.531 19.2034 133.265 19.7382 131.24 20.8058C129.693 21.6221 128.399 22.6784 127.357 23.9708V39.2686C128.387 40.5459 129.67 41.5908 131.203 42.3995C133.228 43.4671 135.493 44.0018 138.004 44.0018C140.04 44.0018 141.905 43.658 143.598 42.9683C145.292 42.2786 146.718 41.2808 147.878 39.9714L144.894 37.2165C143.094 39.1212 140.88 40.0735 138.253 40.0735Z" fill="#F2F2F2"/>
<path d="M155.151 35.1494V43.6561H150.533V35.2193L140.767 19.5492H145.703L152.984 31.2928L160.336 19.5492H164.883L155.151 35.1494Z" fill="#F2F2F2"/>
<path d="M109.015 39.2912L104.597 43.5747V33.9985H109.015V39.2912Z" fill="#EF3131"/>
<path d="M26.0076 37.5254L32.5509 24.4479C31.676 23.5295 30.6744 22.7379 29.5365 22.0765C27.6483 20.9805 25.1911 19.8223 22.1631 18.5997C19.9553 17.6739 18.223 16.8859 16.9642 16.236C15.7054 15.5859 14.7078 14.8188 13.9693 13.9307C13.2289 13.0445 12.9638 12.0128 13.1685 10.8375C13.4627 9.15391 14.4565 7.9257 16.1478 7.15477C17.8412 6.38573 20.2417 6.25534 23.3536 6.76552C25.2515 7.0773 27.1631 7.6725 29.0883 8.55303C31.0115 9.43355 32.812 10.5541 34.4858 11.9164L38.0068 6.38761C36.3934 4.91376 34.3884 3.65911 31.9936 2.61985C29.5969 1.58249 27.1065 0.851237 24.5209 0.426089C20.803 -0.178566 17.5664 -0.144554 14.8091 0.530014C12.0519 1.20647 9.87537 2.37043 8.27753 4.02189C6.6797 5.67525 5.68398 7.63661 5.28647 9.90972C4.81493 12.6137 5.15787 14.8755 6.31532 16.6988C7.47278 18.5204 8.98681 19.9697 10.8574 21.0411C12.7281 22.1143 15.2125 23.2877 18.3166 24.5612C20.5243 25.489 22.2566 26.2751 23.5154 26.9251C24.7742 27.5752 25.7698 28.3536 26.5064 29.2587C27.2411 30.1657 27.506 31.2068 27.3015 32.3821C27.0209 33.9882 26.0174 35.1541 24.2908 35.8777C22.5645 36.6014 20.1248 36.7054 16.9741 36.1895C14.4291 35.772 11.9662 34.9349 9.58892 33.6784C7.20972 32.4218 5.26699 30.9838 3.76269 29.3664L0 34.8555C1.51793 36.6373 3.72372 38.2264 6.61735 39.6286C9.51099 41.0306 12.5936 41.9999 15.8652 42.5366C19.5832 43.1469 22.8295 43.1147 25.6062 42.4421C25.9725 42.3533 26.3252 42.255 26.6701 42.1511C25.5399 40.9191 25.2185 39.1013 26.0076 37.5254Z" fill="#F2F2F2"/>
</svg>
